<mxfile host="app.diagrams.net" modified="2024-03-09T23:41:02.081Z" agent="Mozilla/5.0 (Windows NT 10.0; Win64; x64; rv:123.0) Gecko/20100101 Firefox/123.0" etag="I01ZJ339DBiJKzSBLVtt" scale="1" border="0" version="24.0.4" type="device">
  <diagram id="R2lEEEUBdFMjLlhIrx00" name="Page-1">
    <mxGraphModel dx="2578" dy="2052" grid="1" gridSize="10" guides="1" tooltips="1" connect="1" arrows="1" fold="1" page="1" pageScale="1" pageWidth="850" pageHeight="1100" math="0" shadow="0" extFonts="Permanent Marker^https://fonts.googleapis.com/css?family=Permanent+Marker">
      <root>
        <mxCell id="0" />
        <mxCell id="1" parent="0" />
        <mxCell id="6Sz9yfkY1VkzW9vfDbKE-2" value="&lt;div&gt;Business&lt;/div&gt;" style="rounded=0;whiteSpace=wrap;html=1;" parent="1" vertex="1">
          <mxGeometry x="10" y="-40" width="120" height="60" as="geometry" />
        </mxCell>
        <mxCell id="6Sz9yfkY1VkzW9vfDbKE-3" value="Review" style="rounded=0;whiteSpace=wrap;html=1;" parent="1" vertex="1">
          <mxGeometry x="380" y="-20" width="120" height="60" as="geometry" />
        </mxCell>
        <mxCell id="6Sz9yfkY1VkzW9vfDbKE-4" value="User" style="rounded=0;whiteSpace=wrap;html=1;" parent="1" vertex="1">
          <mxGeometry x="230" y="270" width="120" height="60" as="geometry" />
        </mxCell>
        <mxCell id="6Sz9yfkY1VkzW9vfDbKE-5" value="&lt;div&gt;Checkin&lt;/div&gt;" style="rounded=0;whiteSpace=wrap;html=1;" parent="1" vertex="1">
          <mxGeometry x="-250" y="180" width="120" height="60" as="geometry" />
        </mxCell>
        <mxCell id="6Sz9yfkY1VkzW9vfDbKE-6" value="business_id" style="ellipse;whiteSpace=wrap;html=1;fontStyle=4" parent="1" vertex="1">
          <mxGeometry x="-230" y="-70" width="120" height="50" as="geometry" />
        </mxCell>
        <mxCell id="6Sz9yfkY1VkzW9vfDbKE-8" value="address" style="ellipse;whiteSpace=wrap;html=1;" parent="1" vertex="1">
          <mxGeometry x="-180" y="-200" width="120" height="50" as="geometry" />
        </mxCell>
        <mxCell id="6Sz9yfkY1VkzW9vfDbKE-14" value="review_count" style="ellipse;whiteSpace=wrap;html=1;" parent="1" vertex="1">
          <mxGeometry x="-50" y="-200" width="120" height="50" as="geometry" />
        </mxCell>
        <mxCell id="6Sz9yfkY1VkzW9vfDbKE-23" value="CheckedIn" style="rhombus;whiteSpace=wrap;html=1;" parent="1" vertex="1">
          <mxGeometry x="-90" y="50" width="100" height="80" as="geometry" />
        </mxCell>
        <mxCell id="6Sz9yfkY1VkzW9vfDbKE-27" value="Writes" style="rhombus;whiteSpace=wrap;html=1;" parent="1" vertex="1">
          <mxGeometry x="260" y="82.5" width="100" height="80" as="geometry" />
        </mxCell>
        <mxCell id="6Sz9yfkY1VkzW9vfDbKE-28" value="" style="endArrow=none;html=1;rounded=0;entryX=0.158;entryY=-0.007;entryDx=0;entryDy=0;exitX=0.966;exitY=0.668;exitDx=0;exitDy=0;exitPerimeter=0;entryPerimeter=0;" parent="1" target="6Sz9yfkY1VkzW9vfDbKE-2" edge="1" source="6Sz9yfkY1VkzW9vfDbKE-7">
          <mxGeometry width="50" height="50" relative="1" as="geometry">
            <mxPoint x="-110.00000000000296" y="-45" as="sourcePoint" />
            <mxPoint x="100" y="20" as="targetPoint" />
          </mxGeometry>
        </mxCell>
        <mxCell id="6Sz9yfkY1VkzW9vfDbKE-29" value="" style="endArrow=none;html=1;rounded=0;entryX=0;entryY=0.5;entryDx=0;entryDy=0;exitX=1;exitY=0.5;exitDx=0;exitDy=0;" parent="1" source="KcyRbhwUL3EpNNIwgFh8-1" edge="1">
          <mxGeometry width="50" height="50" relative="1" as="geometry">
            <mxPoint x="-100" y="15" as="sourcePoint" />
            <mxPoint x="10" y="5" as="targetPoint" />
          </mxGeometry>
        </mxCell>
        <mxCell id="6Sz9yfkY1VkzW9vfDbKE-32" value="" style="endArrow=none;html=1;rounded=0;entryX=0.71;entryY=0.028;entryDx=0;entryDy=0;exitX=0.693;exitY=0.999;exitDx=0;exitDy=0;entryPerimeter=0;exitPerimeter=0;" parent="1" source="6Sz9yfkY1VkzW9vfDbKE-14" target="6Sz9yfkY1VkzW9vfDbKE-2" edge="1">
          <mxGeometry width="50" height="50" relative="1" as="geometry">
            <mxPoint x="-30" y="-93" as="sourcePoint" />
            <mxPoint x="103" y="-57" as="targetPoint" />
          </mxGeometry>
        </mxCell>
        <mxCell id="6Sz9yfkY1VkzW9vfDbKE-33" value="" style="endArrow=none;html=1;rounded=0;entryX=0.554;entryY=-0.017;entryDx=0;entryDy=0;exitX=0.492;exitY=0.934;exitDx=0;exitDy=0;entryPerimeter=0;exitPerimeter=0;" parent="1" source="6Sz9yfkY1VkzW9vfDbKE-8" target="6Sz9yfkY1VkzW9vfDbKE-2" edge="1">
          <mxGeometry width="50" height="50" relative="1" as="geometry">
            <mxPoint x="-40" y="43.5" as="sourcePoint" />
            <mxPoint x="31" y="106.5" as="targetPoint" />
          </mxGeometry>
        </mxCell>
        <mxCell id="6Sz9yfkY1VkzW9vfDbKE-35" value="" style="endArrow=none;html=1;rounded=0;entryX=0.368;entryY=0.983;entryDx=0;entryDy=0;entryPerimeter=0;" parent="1" source="6Sz9yfkY1VkzW9vfDbKE-23" target="6Sz9yfkY1VkzW9vfDbKE-2" edge="1">
          <mxGeometry width="50" height="50" relative="1" as="geometry">
            <mxPoint x="120" y="190" as="sourcePoint" />
            <mxPoint x="170" y="140" as="targetPoint" />
          </mxGeometry>
        </mxCell>
        <mxCell id="6Sz9yfkY1VkzW9vfDbKE-36" value="" style="endArrow=classic;html=1;rounded=0;entryX=0.196;entryY=0.742;entryDx=0;entryDy=0;entryPerimeter=0;" parent="1" source="6Sz9yfkY1VkzW9vfDbKE-5" target="6Sz9yfkY1VkzW9vfDbKE-23" edge="1">
          <mxGeometry width="50" height="50" relative="1" as="geometry">
            <mxPoint x="90" y="190" as="sourcePoint" />
            <mxPoint x="140" y="140" as="targetPoint" />
          </mxGeometry>
        </mxCell>
        <mxCell id="6Sz9yfkY1VkzW9vfDbKE-38" value="" style="rounded=0;whiteSpace=wrap;html=1;fillColor=none;" parent="1" vertex="1">
          <mxGeometry x="-245" y="185" width="110" height="50" as="geometry" />
        </mxCell>
        <mxCell id="6Sz9yfkY1VkzW9vfDbKE-39" value="" style="rhombus;whiteSpace=wrap;html=1;fillColor=none;" parent="1" vertex="1">
          <mxGeometry x="-83.75" y="55" width="87.5" height="70" as="geometry" />
        </mxCell>
        <mxCell id="6Sz9yfkY1VkzW9vfDbKE-41" value="time" style="ellipse;whiteSpace=wrap;html=1;" parent="1" vertex="1">
          <mxGeometry x="-350" y="162.5" width="65" height="35" as="geometry" />
        </mxCell>
        <mxCell id="6Sz9yfkY1VkzW9vfDbKE-42" value="" style="endArrow=none;html=1;rounded=0;exitX=1;exitY=1;exitDx=0;exitDy=0;entryX=0;entryY=0.5;entryDx=0;entryDy=0;" parent="1" source="6Sz9yfkY1VkzW9vfDbKE-41" target="6Sz9yfkY1VkzW9vfDbKE-5" edge="1">
          <mxGeometry width="50" height="50" relative="1" as="geometry">
            <mxPoint x="-200" y="230" as="sourcePoint" />
            <mxPoint x="-150" y="180" as="targetPoint" />
          </mxGeometry>
        </mxCell>
        <mxCell id="6Sz9yfkY1VkzW9vfDbKE-45" value="" style="endArrow=classic;html=1;rounded=0;exitX=0.5;exitY=1;exitDx=0;exitDy=0;entryX=0.5;entryY=0;entryDx=0;entryDy=0;" parent="1" source="6Sz9yfkY1VkzW9vfDbKE-3" target="6Sz9yfkY1VkzW9vfDbKE-27" edge="1">
          <mxGeometry width="50" height="50" relative="1" as="geometry">
            <mxPoint x="250" y="130" as="sourcePoint" />
            <mxPoint x="300" y="80" as="targetPoint" />
          </mxGeometry>
        </mxCell>
        <mxCell id="6Sz9yfkY1VkzW9vfDbKE-46" value="" style="endArrow=none;html=1;rounded=0;exitX=0.707;exitY=0.029;exitDx=0;exitDy=0;exitPerimeter=0;entryX=0.5;entryY=1;entryDx=0;entryDy=0;" parent="1" source="6Sz9yfkY1VkzW9vfDbKE-4" target="6Sz9yfkY1VkzW9vfDbKE-27" edge="1">
          <mxGeometry width="50" height="50" relative="1" as="geometry">
            <mxPoint x="250" y="130" as="sourcePoint" />
            <mxPoint x="300" y="80" as="targetPoint" />
          </mxGeometry>
        </mxCell>
        <mxCell id="6Sz9yfkY1VkzW9vfDbKE-49" value="" style="endArrow=none;html=1;rounded=0;entryX=1;entryY=1;entryDx=0;entryDy=0;exitX=0.156;exitY=0.337;exitDx=0;exitDy=0;exitPerimeter=0;" parent="1" target="6Sz9yfkY1VkzW9vfDbKE-2" edge="1">
          <mxGeometry width="50" height="50" relative="1" as="geometry">
            <mxPoint x="277.7550000000001" y="110.27499999999986" as="sourcePoint" />
            <mxPoint x="360" y="80" as="targetPoint" />
          </mxGeometry>
        </mxCell>
        <mxCell id="6Sz9yfkY1VkzW9vfDbKE-50" value="review_id" style="ellipse;whiteSpace=wrap;html=1;fontStyle=4" parent="1" vertex="1">
          <mxGeometry x="350" y="-110" width="85" height="40" as="geometry" />
        </mxCell>
        <mxCell id="6Sz9yfkY1VkzW9vfDbKE-52" value="business_id" style="ellipse;whiteSpace=wrap;html=1;fontStyle=4" parent="1" vertex="1">
          <mxGeometry x="520" y="-80" width="85" height="40" as="geometry" />
        </mxCell>
        <mxCell id="6Sz9yfkY1VkzW9vfDbKE-53" value="user_id" style="ellipse;whiteSpace=wrap;html=1;fontStyle=4" parent="1" vertex="1">
          <mxGeometry x="445" y="-110" width="85" height="40" as="geometry" />
        </mxCell>
        <mxCell id="6Sz9yfkY1VkzW9vfDbKE-54" value="stars" style="ellipse;whiteSpace=wrap;html=1;" parent="1" vertex="1">
          <mxGeometry x="530" y="-30" width="85" height="40" as="geometry" />
        </mxCell>
        <mxCell id="6Sz9yfkY1VkzW9vfDbKE-55" value="text" style="ellipse;whiteSpace=wrap;html=1;" parent="1" vertex="1">
          <mxGeometry x="530" y="20" width="85" height="40" as="geometry" />
        </mxCell>
        <mxCell id="6Sz9yfkY1VkzW9vfDbKE-57" value="user_id" style="ellipse;whiteSpace=wrap;html=1;fontStyle=4" parent="1" vertex="1">
          <mxGeometry x="415" y="290" width="85" height="40" as="geometry" />
        </mxCell>
        <mxCell id="6Sz9yfkY1VkzW9vfDbKE-58" value="name" style="ellipse;whiteSpace=wrap;html=1;" parent="1" vertex="1">
          <mxGeometry x="415" y="350" width="85" height="40" as="geometry" />
        </mxCell>
        <mxCell id="6Sz9yfkY1VkzW9vfDbKE-59" value="friends" style="ellipse;whiteSpace=wrap;html=1;" parent="1" vertex="1">
          <mxGeometry x="320" y="370" width="85" height="40" as="geometry" />
        </mxCell>
        <mxCell id="6Sz9yfkY1VkzW9vfDbKE-60" value="fans" style="ellipse;whiteSpace=wrap;html=1;" parent="1" vertex="1">
          <mxGeometry x="230" y="370" width="85" height="40" as="geometry" />
        </mxCell>
        <mxCell id="6Sz9yfkY1VkzW9vfDbKE-61" value="useful" style="ellipse;whiteSpace=wrap;html=1;" parent="1" vertex="1">
          <mxGeometry x="140" y="370" width="85" height="40" as="geometry" />
        </mxCell>
        <mxCell id="6Sz9yfkY1VkzW9vfDbKE-62" value="useful" style="ellipse;whiteSpace=wrap;html=1;" parent="1" vertex="1">
          <mxGeometry x="500" y="70" width="85" height="40" as="geometry" />
        </mxCell>
        <mxCell id="6Sz9yfkY1VkzW9vfDbKE-63" value="" style="endArrow=none;html=1;rounded=0;entryX=0;entryY=0.5;entryDx=0;entryDy=0;exitX=1.037;exitY=0.529;exitDx=0;exitDy=0;exitPerimeter=0;" parent="1" source="6Sz9yfkY1VkzW9vfDbKE-4" target="6Sz9yfkY1VkzW9vfDbKE-57" edge="1">
          <mxGeometry width="50" height="50" relative="1" as="geometry">
            <mxPoint x="310" y="220" as="sourcePoint" />
            <mxPoint x="360" y="170" as="targetPoint" />
          </mxGeometry>
        </mxCell>
        <mxCell id="6Sz9yfkY1VkzW9vfDbKE-64" value="" style="endArrow=none;html=1;rounded=0;entryX=0.066;entryY=0.305;entryDx=0;entryDy=0;exitX=0.985;exitY=0.925;exitDx=0;exitDy=0;exitPerimeter=0;entryPerimeter=0;" parent="1" source="6Sz9yfkY1VkzW9vfDbKE-4" target="6Sz9yfkY1VkzW9vfDbKE-58" edge="1">
          <mxGeometry width="50" height="50" relative="1" as="geometry">
            <mxPoint x="364" y="312" as="sourcePoint" />
            <mxPoint x="425" y="320" as="targetPoint" />
          </mxGeometry>
        </mxCell>
        <mxCell id="6Sz9yfkY1VkzW9vfDbKE-65" value="" style="endArrow=none;html=1;rounded=0;entryX=0.416;entryY=0.067;entryDx=0;entryDy=0;exitX=0.834;exitY=0.981;exitDx=0;exitDy=0;exitPerimeter=0;entryPerimeter=0;" parent="1" source="6Sz9yfkY1VkzW9vfDbKE-4" target="6Sz9yfkY1VkzW9vfDbKE-59" edge="1">
          <mxGeometry width="50" height="50" relative="1" as="geometry">
            <mxPoint x="358" y="335" as="sourcePoint" />
            <mxPoint x="431" y="372" as="targetPoint" />
          </mxGeometry>
        </mxCell>
        <mxCell id="6Sz9yfkY1VkzW9vfDbKE-66" value="" style="endArrow=none;html=1;rounded=0;entryX=0.5;entryY=0;entryDx=0;entryDy=0;exitX=0.425;exitY=0.965;exitDx=0;exitDy=0;exitPerimeter=0;" parent="1" source="6Sz9yfkY1VkzW9vfDbKE-4" target="6Sz9yfkY1VkzW9vfDbKE-60" edge="1">
          <mxGeometry width="50" height="50" relative="1" as="geometry">
            <mxPoint x="340" y="339" as="sourcePoint" />
            <mxPoint x="365" y="383" as="targetPoint" />
          </mxGeometry>
        </mxCell>
        <mxCell id="6Sz9yfkY1VkzW9vfDbKE-67" value="" style="endArrow=none;html=1;rounded=0;entryX=0.545;entryY=-0.052;entryDx=0;entryDy=0;exitX=0;exitY=1;exitDx=0;exitDy=0;entryPerimeter=0;" parent="1" source="6Sz9yfkY1VkzW9vfDbKE-4" target="6Sz9yfkY1VkzW9vfDbKE-61" edge="1">
          <mxGeometry width="50" height="50" relative="1" as="geometry">
            <mxPoint x="198" y="330" as="sourcePoint" />
            <mxPoint x="190" y="372" as="targetPoint" />
          </mxGeometry>
        </mxCell>
        <mxCell id="6Sz9yfkY1VkzW9vfDbKE-68" value="" style="endArrow=none;html=1;rounded=0;entryX=0.629;entryY=0.983;entryDx=0;entryDy=0;entryPerimeter=0;exitX=0.25;exitY=0;exitDx=0;exitDy=0;" parent="1" source="6Sz9yfkY1VkzW9vfDbKE-3" target="6Sz9yfkY1VkzW9vfDbKE-50" edge="1">
          <mxGeometry width="50" height="50" relative="1" as="geometry">
            <mxPoint x="310" y="110" as="sourcePoint" />
            <mxPoint x="360" y="60" as="targetPoint" />
          </mxGeometry>
        </mxCell>
        <mxCell id="6Sz9yfkY1VkzW9vfDbKE-69" value="" style="endArrow=none;html=1;rounded=0;entryX=0.351;entryY=0.924;entryDx=0;entryDy=0;entryPerimeter=0;exitX=0.56;exitY=-0.035;exitDx=0;exitDy=0;exitPerimeter=0;" parent="1" source="6Sz9yfkY1VkzW9vfDbKE-3" target="6Sz9yfkY1VkzW9vfDbKE-53" edge="1">
          <mxGeometry width="50" height="50" relative="1" as="geometry">
            <mxPoint x="420" y="-10" as="sourcePoint" />
            <mxPoint x="413" y="-61" as="targetPoint" />
          </mxGeometry>
        </mxCell>
        <mxCell id="6Sz9yfkY1VkzW9vfDbKE-70" value="" style="endArrow=none;html=1;rounded=0;entryX=0.057;entryY=0.733;entryDx=0;entryDy=0;entryPerimeter=0;exitX=0.91;exitY=-0.019;exitDx=0;exitDy=0;exitPerimeter=0;" parent="1" source="6Sz9yfkY1VkzW9vfDbKE-3" target="6Sz9yfkY1VkzW9vfDbKE-52" edge="1">
          <mxGeometry width="50" height="50" relative="1" as="geometry">
            <mxPoint x="457" y="-12" as="sourcePoint" />
            <mxPoint x="485" y="-63" as="targetPoint" />
          </mxGeometry>
        </mxCell>
        <mxCell id="6Sz9yfkY1VkzW9vfDbKE-71" value="" style="endArrow=none;html=1;rounded=0;entryX=0.024;entryY=0.4;entryDx=0;entryDy=0;entryPerimeter=0;exitX=0.91;exitY=-0.019;exitDx=0;exitDy=0;exitPerimeter=0;" parent="1" target="6Sz9yfkY1VkzW9vfDbKE-54" edge="1">
          <mxGeometry width="50" height="50" relative="1" as="geometry">
            <mxPoint x="499" y="-11" as="sourcePoint" />
            <mxPoint x="535" y="-41" as="targetPoint" />
          </mxGeometry>
        </mxCell>
        <mxCell id="6Sz9yfkY1VkzW9vfDbKE-72" value="" style="endArrow=none;html=1;rounded=0;entryX=0.012;entryY=0.424;entryDx=0;entryDy=0;entryPerimeter=0;exitX=1;exitY=0.5;exitDx=0;exitDy=0;" parent="1" source="6Sz9yfkY1VkzW9vfDbKE-3" target="6Sz9yfkY1VkzW9vfDbKE-55" edge="1">
          <mxGeometry width="50" height="50" relative="1" as="geometry">
            <mxPoint x="509" y="-1" as="sourcePoint" />
            <mxPoint x="542" y="-4" as="targetPoint" />
          </mxGeometry>
        </mxCell>
        <mxCell id="6Sz9yfkY1VkzW9vfDbKE-73" value="" style="endArrow=none;html=1;rounded=0;entryX=0.197;entryY=-0.029;entryDx=0;entryDy=0;entryPerimeter=0;exitX=0.937;exitY=0.981;exitDx=0;exitDy=0;exitPerimeter=0;" parent="1" source="6Sz9yfkY1VkzW9vfDbKE-3" target="6Sz9yfkY1VkzW9vfDbKE-62" edge="1">
          <mxGeometry width="50" height="50" relative="1" as="geometry">
            <mxPoint x="510" y="20" as="sourcePoint" />
            <mxPoint x="541" y="47" as="targetPoint" />
          </mxGeometry>
        </mxCell>
        <mxCell id="KcyRbhwUL3EpNNIwgFh8-1" value="Categorized" style="rhombus;whiteSpace=wrap;html=1;" vertex="1" parent="1">
          <mxGeometry x="-220" y="-10" width="100" height="80" as="geometry" />
        </mxCell>
        <mxCell id="KcyRbhwUL3EpNNIwgFh8-2" value="" style="endArrow=none;html=1;rounded=0;entryX=0;entryY=0.25;entryDx=0;entryDy=0;exitX=0.966;exitY=0.668;exitDx=0;exitDy=0;exitPerimeter=0;" edge="1" parent="1" source="6Sz9yfkY1VkzW9vfDbKE-6" target="6Sz9yfkY1VkzW9vfDbKE-2">
          <mxGeometry width="50" height="50" relative="1" as="geometry">
            <mxPoint x="-124" y="-87" as="sourcePoint" />
            <mxPoint x="10" y="-10" as="targetPoint" />
          </mxGeometry>
        </mxCell>
        <mxCell id="6Sz9yfkY1VkzW9vfDbKE-7" value="name" style="ellipse;whiteSpace=wrap;html=1;" parent="1" vertex="1">
          <mxGeometry x="-150" y="-110" width="120" height="50" as="geometry" />
        </mxCell>
        <mxCell id="KcyRbhwUL3EpNNIwgFh8-4" value="Has" style="rhombus;whiteSpace=wrap;html=1;" vertex="1" parent="1">
          <mxGeometry x="122.5" y="-190" width="100" height="80" as="geometry" />
        </mxCell>
        <mxCell id="KcyRbhwUL3EpNNIwgFh8-5" value="" style="endArrow=none;html=1;rounded=0;entryX=0.547;entryY=0.999;entryDx=0;entryDy=0;entryPerimeter=0;exitX=0.922;exitY=-0.018;exitDx=0;exitDy=0;exitPerimeter=0;" edge="1" parent="1" source="6Sz9yfkY1VkzW9vfDbKE-2" target="KcyRbhwUL3EpNNIwgFh8-4">
          <mxGeometry width="50" height="50" relative="1" as="geometry">
            <mxPoint x="-60" y="20" as="sourcePoint" />
            <mxPoint x="-10" y="-30" as="targetPoint" />
          </mxGeometry>
        </mxCell>
        <mxCell id="KcyRbhwUL3EpNNIwgFh8-6" value="" style="endArrow=none;html=1;rounded=0;exitX=0.5;exitY=0;exitDx=0;exitDy=0;" edge="1" parent="1" source="KcyRbhwUL3EpNNIwgFh8-4">
          <mxGeometry width="50" height="50" relative="1" as="geometry">
            <mxPoint x="131" y="-31" as="sourcePoint" />
            <mxPoint x="179.26397610187223" y="-240.03638707158643" as="targetPoint" />
          </mxGeometry>
        </mxCell>
        <mxCell id="KcyRbhwUL3EpNNIwgFh8-7" value="BusinessAttribute" style="rounded=0;whiteSpace=wrap;html=1;" vertex="1" parent="1">
          <mxGeometry x="122.5" y="-300" width="120" height="60" as="geometry" />
        </mxCell>
        <mxCell id="KcyRbhwUL3EpNNIwgFh8-8" value="BusinessCategory" style="rounded=0;whiteSpace=wrap;html=1;" vertex="1" parent="1">
          <mxGeometry x="-430" width="120" height="60" as="geometry" />
        </mxCell>
        <mxCell id="KcyRbhwUL3EpNNIwgFh8-9" value="" style="endArrow=none;html=1;rounded=0;entryX=0;entryY=0.5;entryDx=0;entryDy=0;exitX=1;exitY=0.5;exitDx=0;exitDy=0;" edge="1" parent="1" target="KcyRbhwUL3EpNNIwgFh8-1">
          <mxGeometry width="50" height="50" relative="1" as="geometry">
            <mxPoint x="-310" y="35" as="sourcePoint" />
            <mxPoint x="-180" y="10" as="targetPoint" />
          </mxGeometry>
        </mxCell>
        <mxCell id="KcyRbhwUL3EpNNIwgFh8-11" value="" style="endArrow=none;html=1;rounded=0;exitX=0.549;exitY=-0.053;exitDx=0;exitDy=0;exitPerimeter=0;" edge="1" parent="1" source="KcyRbhwUL3EpNNIwgFh8-8">
          <mxGeometry width="50" height="50" relative="1" as="geometry">
            <mxPoint x="-290" y="-130" as="sourcePoint" />
            <mxPoint x="-380" y="-90" as="targetPoint" />
          </mxGeometry>
        </mxCell>
        <mxCell id="KcyRbhwUL3EpNNIwgFh8-12" value="category" style="ellipse;whiteSpace=wrap;html=1;" vertex="1" parent="1">
          <mxGeometry x="-440" y="-140" width="110" height="50" as="geometry" />
        </mxCell>
        <mxCell id="KcyRbhwUL3EpNNIwgFh8-13" value="attribute" style="ellipse;whiteSpace=wrap;html=1;" vertex="1" parent="1">
          <mxGeometry x="235" y="-420" width="110" height="50" as="geometry" />
        </mxCell>
        <mxCell id="KcyRbhwUL3EpNNIwgFh8-14" value="" style="endArrow=none;html=1;rounded=0;entryX=0.328;entryY=0.916;entryDx=0;entryDy=0;entryPerimeter=0;exitX=0.91;exitY=-0.018;exitDx=0;exitDy=0;exitPerimeter=0;" edge="1" parent="1" source="KcyRbhwUL3EpNNIwgFh8-7" target="KcyRbhwUL3EpNNIwgFh8-13">
          <mxGeometry width="50" height="50" relative="1" as="geometry">
            <mxPoint x="150" y="-230" as="sourcePoint" />
            <mxPoint x="200" y="-280" as="targetPoint" />
          </mxGeometry>
        </mxCell>
      </root>
    </mxGraphModel>
  </diagram>
</mxfile>
